<svg xmlns="http://www.w3.org/2000/svg" viewBox="0 0 720 480" fill="none">
  <rect width="720" height="480" fill="#0e1f1a"/>
  <g opacity="0.04"><pattern id="fr" width="32" height="32" patternUnits="userSpaceOnUse"><circle cx="16" cy="16" r="0.8" fill="#fff"/></pattern><rect width="720" height="480" fill="url(#fr)"/></g>
  <!-- Room list -->
  <rect x="60" y="40" width="260" height="400" rx="16" fill="#111f1b" stroke="#1e3c34"/>
  <text x="88" y="76" font-family="sans-serif" font-size="12" font-weight="600" fill="#7a9990" letter-spacing="0.12em">ROOMS</text>
  <rect x="74" y="92" width="232" height="48" rx="8" fill="#4a90e2" opacity="0.12"/>
  <rect x="74" y="92" width="3" height="48" rx="1.5" fill="#4a90e2"/>
  <text x="112" y="121" font-family="sans-serif" font-size="14" font-weight="600" fill="#e0ebe7">🎮 Gaming</text>
  <text x="252" y="121" font-family="monospace" font-size="9" fill="#4a90e2">3 routes</text>
  <rect x="74" y="148" width="232" height="48" rx="8" fill="transparent"/>
  <text x="112" y="177" font-family="sans-serif" font-size="14" fill="#5c7a71">💼 Work</text>
  <text x="252" y="177" font-family="monospace" font-size="9" fill="#5c7a71">2 routes</text>
  <rect x="74" y="204" width="232" height="48" rx="8" fill="transparent"/>
  <text x="112" y="233" font-family="sans-serif" font-size="14" fill="#5c7a71">🎙 Podcast</text>
  <text x="252" y="233" font-family="monospace" font-size="9" fill="#5c7a71">4 routes</text>
  <rect x="74" y="260" width="232" height="48" rx="8" fill="transparent"/>
  <text x="112" y="289" font-family="sans-serif" font-size="14" fill="#5c7a71">🎵 Music</text>
  <text x="252" y="289" font-family="monospace" font-size="9" fill="#5c7a71">1 route</text>
  <!-- Highlight arrow -->
  <rect x="400" y="100" width="260" height="120" rx="14" fill="#111f1b" stroke="#4a90e2" stroke-width="1" stroke-dasharray="6 3"/>
  <text x="420" y="130" font-family="sans-serif" font-size="12" font-weight="600" fill="#4a90e2">Active Room: Gaming</text>
  <text x="420" y="152" font-family="sans-serif" font-size="11" fill="#7a9990">• Firefox → Headphones (85%)</text>
  <text x="420" y="170" font-family="sans-serif" font-size="11" fill="#7a9990">• CS2 → Headphones (100%)</text>
  <text x="420" y="188" font-family="sans-serif" font-size="11" fill="#7a9990">• Discord → Speakers (60%)</text>
  <line x1="320" y1="116" x2="400" y2="140" stroke="#4a90e2" stroke-width="1" stroke-dasharray="4 3" opacity="0.5"/>
</svg>
