<svg xmlns="http://www.w3.org/2000/svg" viewBox="0 0 640 360" fill="none">
  <defs>
    <linearGradient id="bg2" x1="0" y1="0" x2="640" y2="360" gradientUnits="userSpaceOnUse">
      <stop offset="0%" stop-color="#0e1f1a"/>
      <stop offset="100%" stop-color="#111f1b"/>
    </linearGradient>
    <linearGradient id="w1" x1="0" y1="0" x2="1" y2="0">
      <stop offset="0%" stop-color="#4a90e2" stop-opacity="0.9"/>
      <stop offset="100%" stop-color="#4a90e2" stop-opacity="0.3"/>
    </linearGradient>
    <linearGradient id="w2" x1="0" y1="0" x2="1" y2="0">
      <stop offset="0%" stop-color="#50c878" stop-opacity="0.9"/>
      <stop offset="100%" stop-color="#50c878" stop-opacity="0.3"/>
    </linearGradient>
  </defs>
  <rect width="640" height="360" fill="url(#bg2)"/>
  <g opacity="0.04"><pattern id="g2" width="32" height="32" patternUnits="userSpaceOnUse"><circle cx="16" cy="16" r="0.8" fill="#fff"/></pattern><rect width="640" height="360" fill="url(#g2)"/></g>
  <!-- Source nodes -->
  <rect x="60" y="80" width="160" height="52" rx="10" fill="#111f1b" stroke="#1e3c34"/>
  <text x="96" y="111" font-family="sans-serif" font-size="12" font-weight="600" fill="#e0ebe7">🎵 Spotify</text>
  <circle cx="210" cy="106" r="5" fill="#4a90e2" opacity="0.7"/>
  <rect x="60" y="160" width="160" height="52" rx="10" fill="#111f1b" stroke="#1e3c34"/>
  <text x="96" y="191" font-family="sans-serif" font-size="12" font-weight="600" fill="#e0ebe7">🎮 Game</text>
  <circle cx="210" cy="186" r="5" fill="#4a90e2" opacity="0.7"/>
  <rect x="60" y="240" width="160" height="52" rx="10" fill="#111f1b" stroke="#1e3c34"/>
  <text x="96" y="271" font-family="sans-serif" font-size="12" font-weight="600" fill="#e0ebe7">💬 Discord</text>
  <circle cx="210" cy="266" r="5" fill="#50c878" opacity="0.7"/>
  <!-- Sink nodes -->
  <rect x="420" y="110" width="160" height="52" rx="10" fill="#111f1b" stroke="#1e3c34"/>
  <text x="456" y="141" font-family="sans-serif" font-size="12" font-weight="600" fill="#e0ebe7">🎧 Headphones</text>
  <circle cx="430" cy="136" r="5" fill="#4a90e2" opacity="0.7"/>
  <rect x="420" y="220" width="160" height="52" rx="10" fill="#111f1b" stroke="#1e3c34"/>
  <text x="456" y="251" font-family="sans-serif" font-size="12" font-weight="600" fill="#e0ebe7">🔊 Speakers</text>
  <circle cx="430" cy="246" r="5" fill="#50c878" opacity="0.7"/>
  <!-- Wires -->
  <path d="M215 106 C310 106 330 136 425 136" stroke="url(#w1)" stroke-width="2.5" fill="none" stroke-linecap="round"/>
  <path d="M215 186 C310 186 330 136 425 136" stroke="url(#w1)" stroke-width="2.5" fill="none" stroke-linecap="round"/>
  <path d="M215 266 C310 266 330 246 425 246" stroke="url(#w2)" stroke-width="2.5" fill="none" stroke-linecap="round"/>
  <!-- Drag cursor indicator -->
  <g transform="translate(312, 155)">
    <circle r="12" fill="#4a90e2" opacity="0.2"/>
    <circle r="4" fill="#4a90e2"/>
    <path d="M0 -8 L0 -18 M0 8 L0 18 M-8 0 L-18 0 M8 0 L18 0" stroke="#4a90e2" stroke-width="1" opacity="0.4"/>
  </g>
  <!-- Step label -->
  <rect x="250" y="20" width="140" height="28" rx="14" fill="#50c878" opacity="0.12"/>
  <text x="320" y="39" text-anchor="middle" font-family="monospace" font-size="11" font-weight="600" fill="#50c878">STEP 2: WIRE</text>
</svg>
